<svg xmlns="http://www.w3.org/2000/svg" viewBox="0 0 1600 1000" role="img" aria-labelledby="title desc">
  <title id="title">MZ TURNAJE</title>
  <desc id="desc">Farebný turnajový vizuál Majstrov zábavy pre MZ TURNAJE.</desc>
  <defs>
    <linearGradient id="bg" x1="0" x2="1" y1="0" y2="1">
      <stop offset="0" stop-color="#10150b"/>
      <stop offset="0.45" stop-color="#d6ff31"/>
      <stop offset="1" stop-color="#ff8d24"/>
    </linearGradient>
    <radialGradient id="glow" cx="50%" cy="42%" r="58%">
      <stop offset="0" stop-color="#ffffff" stop-opacity="0.55"/>
      <stop offset="0.34" stop-color="#d8ff32" stop-opacity="0.28"/>
      <stop offset="1" stop-color="#080a08" stop-opacity="0"/>
    </radialGradient>
    <filter id="softShadow" x="-20%" y="-20%" width="140%" height="140%">
      <feDropShadow dx="0" dy="24" stdDeviation="22" flood-color="#071006" flood-opacity="0.32"/>
    </filter>
  </defs>
  <rect width="1600" height="1000" fill="url(#bg)"/>
  <rect width="1600" height="1000" fill="url(#glow)"/>
  <g opacity="0.24" fill="none" stroke="#ffffff" stroke-width="2">
    <path d="M130 184c260 70 470 72 742 0s459-64 594 4"/>
    <path d="M76 780c256-88 500-98 732-22 250 82 472 74 720-18"/>
    <circle cx="1240" cy="250" r="164"/>
    <circle cx="1240" cy="250" r="92"/>
  </g>
  <g transform="translate(122 118)">
    <rect x="0" y="0" width="170" height="170" rx="42" fill="#0b1208" stroke="#d8ff32" stroke-width="8"/>
    <text x="85" y="108" text-anchor="middle" font-family="Arial, Helvetica, sans-serif" font-size="64" font-weight="900" fill="#d8ff32">MZ</text>
  </g>
  <g filter="url(#softShadow)">
    <text x="120" y="410" font-family="Arial, Helvetica, sans-serif" font-size="128" font-weight="900" letter-spacing="12" fill="#091006">MZ</text>
    <text x="120" y="565" font-family="Arial, Helvetica, sans-serif" font-size="132" font-weight="900" letter-spacing="8" fill="#091006">TURNAJE</text>
    <rect x="120" y="610" width="705" height="18" rx="9" fill="#d8ff32"/>
  </g>
  <g transform="translate(126 694)">
    <rect width="548" height="116" rx="58" fill="#091006"/>
    <text x="54" y="73" font-family="Arial, Helvetica, sans-serif" font-size="36" font-weight="900" letter-spacing="5" fill="#d8ff32">3v3 FLOORBALL CUP</text>
  </g>
  <g transform="translate(1058 628)">
    <circle cx="160" cy="160" r="142" fill="#091006" opacity="0.92"/>
    <path d="M160 54v212M54 160h212" stroke="#d8ff32" stroke-width="20" stroke-linecap="round"/>
    <path d="M82 238c56-52 112-52 168 0" fill="none" stroke="#ffffff" stroke-width="18" stroke-linecap="round" opacity="0.85"/>
  </g>
  <g font-family="Arial, Helvetica, sans-serif" font-weight="900" letter-spacing="4" fill="#091006">
    <text x="1130" y="136" font-size="34">25. JÚL 2026</text>
    <text x="1130" y="190" font-size="34">ZVOLEN</text>
  </g>
</svg>
